<?xml version="1.0" encoding="UTF-8"?>
<svg id="Layer_1" data-name="Layer 1" xmlns="http://www.w3.org/2000/svg" viewBox="0 0 363.86 91.53">
  <defs>
    <style>
      .cls-1 {
        fill: none;
        stroke: #3b52a3;
      }

      .cls-2 {
        fill: #fff;
      }

      .cls-3 {
        fill: #3b52a3;
      }
    </style>
  </defs>
  <g>
    <path class="cls-3" d="M299.3,50.21c0-9.27,6.48-14.04,16.74-14.04h10.98v-4.05c0-3.6-1.98-5.58-5.58-5.58h-15.39c-.99,0-1.53-1.08-1.08-1.89l2.61-4.77c.09-.18.45-.45.81-.45h20.61c7.83,0,12.24,4.41,12.24,12.24v25.92c0,.72.45,1.17,1.17,1.17h4.23c.99,0,1.53,1.08,1.08,1.89l-2.61,4.77c-.09.18-.45.45-.81.45h-9.36c-3.24,0-5.58-1.17-6.84-3.42-2.52,2.61-6.21,3.96-10.8,3.96h-3.78c-8.73,0-14.22-4.77-14.22-14.04v-2.16ZM313.61,51.83c0,5.4,2.34,6.93,6.12,6.93h.9c3.87,0,6.39-1.53,6.39-6.93v-9.09h-7.29c-3.78,0-6.12,1.53-6.12,6.93v2.16Z"/>
    <path class="cls-3" d="M349.64,6.03c0-.72.63-1.35,1.35-1.35h11.52c.72,0,1.35.63,1.35,1.35v6.39c0,.72-.63,1.35-1.35,1.35h-11.52c-.72,0-1.35-.63-1.35-1.35v-6.39ZM349.64,20.79c0-.72.63-1.35,1.35-1.35h11.52c.72,0,1.35.63,1.35,1.35v43.73c0,.72-.63,1.35-1.35,1.35h-11.52c-.72,0-1.35-.63-1.35-1.35V20.79Z"/>
  </g>
  <path class="cls-2" d="M35.99,58.94c.99,0,1.53,1.08,1.08,1.89l-2.52,4.59c-.09.18-.45.45-.81.45h-14.49c-11.79,0-19.26-7.47-19.26-21.42v-3.51c0-14.04,7.47-21.51,19.26-21.51h16.74c.99,0,1.53,1.08,1.08,1.89l-2.52,4.59c-.09.18-.45.45-.81.45h-8.55c-6.66,0-10.89,3.15-10.89,13.95v4.77c0,10.71,4.23,13.86,10.89,13.86h10.8Z"/>
  <path class="cls-2" d="M37.02,40.94c0-14.49,7.47-21.96,19.26-21.96h5.04c11.79,0,19.26,7.47,19.26,21.96v3.51c0,14.49-7.47,21.96-19.26,21.96h-5.04c-11.79,0-19.26-7.47-19.26-21.96v-3.51ZM51.32,45.08c0,11.25,2.7,14.4,6.93,14.4h.99c4.32,0,7.02-3.15,7.02-14.4v-4.77c0-11.25-2.7-14.4-7.02-14.4h-.99c-4.23,0-6.93,3.15-6.93,14.4v4.77Z"/>
  <path class="cls-2" d="M127.61,23.12c0-1.98,1.71-3.69,3.69-3.69h25.11c7.83,0,12.24,4.41,12.24,12.24v32.84c0,.72-.63,1.35-1.35,1.35h-11.52c-.72,0-1.35-.63-1.35-1.35v-32.4c0-3.6-1.98-5.58-5.58-5.58h-5.67c-.72,0-1.35.63-1.35,1.35v36.62c0,.72-.63,1.35-1.35,1.35h-11.52c-.72,0-1.35-.63-1.35-1.35V23.12Z"/>
  <path class="cls-2" d="M172.25,50.21c0-9.27,6.48-14.04,16.74-14.04h10.98v-4.05c0-3.6-1.98-5.58-5.58-5.58h-15.39c-.99,0-1.53-1.08-1.08-1.89l2.61-4.77c.09-.18.45-.45.81-.45h20.61c7.83,0,12.24,4.41,12.24,12.24v25.92c0,.72.45,1.17,1.17,1.17h4.23c.99,0,1.53,1.08,1.08,1.89l-2.61,4.77c-.09.18-.45.45-.81.45h-9.36c-3.24,0-5.58-1.17-6.84-3.42-2.52,2.61-6.21,3.96-10.8,3.96h-3.78c-8.73,0-14.22-4.77-14.22-14.04v-2.16ZM186.56,51.83c0,5.4,2.34,6.93,6.12,6.93h.9c3.87,0,6.39-1.53,6.39-6.93v-9.09h-7.29c-3.78,0-6.12,1.53-6.12,6.93v2.16Z"/>
  <path class="cls-2" d="M296.11,58.76h-4.23c-.72,0-1.17-.45-1.17-1.17v-25.92c0-7.83-4.41-12.24-12.24-12.24h-45c-7.29,0-10.89,3.6-10.89,10.89v34.19c0,.72.63,1.35,1.35,1.35h11.52c.72,0,1.35-.63,1.35-1.35v-31.32c0-4.41,2.25-6.66,6.66-6.66h27.45c3.6,0,5.58,1.98,5.58,5.58v4.05h-10.98c-10.26,0-16.74,4.77-16.74,14.04v2.16c0,9.27,5.49,14.04,14.22,14.04h3.78c4.59,0,8.28-1.35,10.8-3.96,1.26,2.25,3.6,3.42,6.84,3.42h9.36c.36,0,.72-.27.81-.45l2.61-4.77c.45-.81-.09-1.89-1.08-1.89ZM276.5,51.83c0,5.4-2.52,6.93-6.39,6.93h-.9c-3.78,0-6.12-1.53-6.12-6.93v-2.16c0-5.4,2.34-6.93,6.12-6.93h7.29v9.09Z"/>
  <path class="cls-1" d="M114.73,13.57c0-3.57,2.38-5.41,6.13-5.41h1.61c3.76,0,6.13,1.84,6.13,5.41v.87c0,3.57-2.38,5.41-6.13,5.41h-1.61c-3.76,0-6.13-1.84-6.13-5.41v-.87Z"/>
  <path class="cls-1" d="M127.34,4.23c0-2.46,1.64-3.73,4.23-3.73h1.11c2.59,0,4.23,1.27,4.23,3.73v.6c0,2.46-1.64,3.73-4.23,3.73h-1.11c-2.59,0-4.23-1.27-4.23-3.73v-.6Z"/>
  <path class="cls-2" d="M124.6,69.73c-.98-2.21-2.35-4.1-4.13-5.68-1.78-1.58-3.91-2.79-6.41-3.66s-5.26-1.29-8.3-1.29h-11.18c-1.55,0-2.79-.37-3.74-1.12-.95-.75-1.42-1.75-1.42-3.01,0-1.55.77-2.84,2.32-3.87h-.02c2.54,1.04,5.56,1.57,8.98,1.57h4.64c10.84,0,17.7-5.31,17.7-15.61v-2.5c0-10.3-6.87-15.61-17.7-15.61h-4.64c-10.84,0-17.7,5.31-17.7,15.61v2.5c0,5.84,2.21,10.07,6.1,12.65-2.06,1.24-3.67,2.79-4.8,4.66-1.18,1.95-1.76,4.07-1.76,6.36,0,1.83.39,3.53,1.16,5.07.77,1.55,1.85,2.87,3.23,3.96,1.38,1.09,3.04,1.94,4.99,2.54s4.07.9,6.36.9h21.41c.8,0,1.46.16,1.98.47.52.31.77.76.77,1.33,0,.69-.32,1.25-.95,1.68-.63.43-1.43.8-2.41,1.12-.98.31-2.02.63-3.14.95-1.12.31-2.17.76-3.14,1.33-.98.57-1.78,1.33-2.41,2.28-.63.95-.95,2.16-.95,3.66,0,1.6.57,2.92,1.72,3.96,1.15,1.03,2.64,1.55,4.47,1.55,1.55,0,2.95-.36,4.21-1.08,1.26-.72,2.35-1.71,3.27-2.97.92-1.26,1.63-2.78,2.15-4.56.52-1.78.77-3.7.77-5.76,0-2.75-.49-5.23-1.46-7.44ZM96.87,34.28c0-7.11,2.25-9,5.76-9h.81c3.6,0,5.85,1.89,5.85,9v3.06c0,7.11-2.25,9-5.85,9h-.81c-3.51,0-5.76-1.89-5.76-9v-3.06Z"/>
</svg>